<svg width="104" height="124" viewBox="0 0 104 124" fill="none" xmlns="http://www.w3.org/2000/svg">
<path d="M25 88.754L25 14.754" stroke="#1C2523" stroke-linecap="round"/>
<path d="M38 109L38 36" stroke="#1C2523" stroke-width="2" stroke-linecap="round"/>
<path d="M38 35.7291L78.4446 16" stroke="#1C2523" stroke-width="2" stroke-linecap="round"/>
<path d="M55 47.7291L64 43" stroke="#1C2523" stroke-width="2" stroke-linecap="round"/>
<path d="M55 64.7291L62 61" stroke="#1C2523" stroke-width="2" stroke-linecap="round"/>
<path d="M62 61L71 75" stroke="#1C2523" stroke-width="2" stroke-linecap="round"/>
<path d="M38 109.246L78.4446 89.5169" stroke="#1C2523" stroke-width="2" stroke-linecap="round"/>
<path d="M25 14.754L79 14.754" stroke="#1C2523" stroke-linecap="round"/>
<path d="M79 89L79 15" stroke="#1C2523" stroke-linecap="round"/>
<path d="M55 83L55 48" stroke="#1C2523" stroke-width="2" stroke-linecap="round"/>
<path d="M55 83L55 48" stroke="#1C2523" stroke-width="2" stroke-linecap="round"/>
<path d="M62 61C71 55.5 71 39.5 64 43" stroke="#1C2523" stroke-width="2" stroke-linecap="round"/>
<path opacity="0.45" d="M48 83L45.9875 87.0249" stroke="#1C2523" stroke-linecap="round"/>
<path opacity="0.45" d="M48 83L43.9645 80.9814" stroke="#1C2523" stroke-linecap="round"/>
<path opacity="0.45" d="M48 83C27.5 92 20.9999 67 43.5 57.5" stroke="#1C2523" stroke-linecap="round"/>
</svg>
