<svg width="104" height="78" viewBox="0 0 104 78" fill="none" xmlns="http://www.w3.org/2000/svg">
<g clip-path="url(#clip0_53_348)">
<path d="M104 -30.6429H0V78H104V-30.6429Z" fill="#F0F3F3"/>
<path d="M31.7767 0H27.6545V78H31.7767H37.1091V0H31.7767Z" fill="#3F524E"/>
<path d="M37.2131 0H37.1091V78H37.2131H37.3455V0H37.2131Z" fill="#3F524E"/>
<path d="M45.7222 0H41.6V78H45.7222H51.0545V0H45.7222Z" fill="#3F524E"/>
<path d="M53.0117 0H51.0546V78H53.0117H55.5455V0H53.0117Z" fill="#3F524E"/>
<path d="M39.2009 0H37.3455V78H39.2009H41.6V0H39.2009Z" fill="#192623"/>
<path d="M51.7329 0H51.5272V78H51.7329H51.9999V0H51.7329Z" fill="#5E6F69"/>
<path d="M51.2602 0H51.0546V78H51.2602H51.5273V0H51.2602Z" fill="#192623"/>
<path d="M51.5272 19.7468V52.6582L104 57.5949V24.6835L51.5272 19.7468Z" fill="#3F524E"/>
<path d="M55.5454 18.7595L51.5272 19.7468L54.3636 20.0134L104 24.6835V23.2025L55.5454 18.7595Z" fill="#95A6A2"/>
<path d="M104 40.3263L37.3455 34.0435V39.1382L104 45.4177V40.3263Z" fill="#5E6F69"/>
<path d="M104 37.2557L41.6 31.5949L37.3455 34.0435L43.4271 34.6195L104 40.3263V37.2557Z" fill="#192623"/>
</g>
<defs>
<clipPath id="clip0_53_348">
<rect width="104" height="78" rx="6" fill="white"/>
</clipPath>
</defs>
</svg>
