<svg width="104" height="78" viewBox="0 0 104 78" fill="none" xmlns="http://www.w3.org/2000/svg">
<g clip-path="url(#clip0_53_325)">
<path d="M104 -30.6429H0V78H104V-30.6429Z" fill="#F0F3F3"/>
<path d="M31.7767 -30.6429H27.6545V78H31.7767H37.1091V-30.6429H31.7767Z" fill="#3F524E"/>
<path d="M37.2131 0H37.1091V78H37.2131H37.3455V0H37.2131Z" fill="#3F524E"/>
<path d="M45.6984 -30.6429H41.6V78H45.6984H51V-30.6429H45.6984Z" fill="#3F524E"/>
<path d="M53.0117 0H51.0546V78H53.0117H55.5455V0H53.0117Z" fill="#3F524E"/>
<path d="M39.3754 -30.6429H37.3455V78H39.3754H42V-30.6429H39.3754Z" fill="#192623"/>
<path d="M51.7329 0H51.5272V78H51.7329H51.9999V0H51.7329Z" fill="#5E6F69"/>
<path d="M51.2602 -30.6429H51.0546V78H51.2602H51.5273V-30.6429H51.2602Z" fill="#192623"/>
<path d="M51.5272 19.7468V52.6582L104 57.5949V24.6836L51.5272 19.7468Z" fill="#3F524E"/>
<path d="M55.5454 18.7595L51.5272 19.7468L54.3636 20.0134L104 24.6835V23.2025L55.5454 18.7595Z" fill="#95A6A2"/>
</g>
<defs>
<clipPath id="clip0_53_325">
<rect width="104" height="78" rx="6" fill="white"/>
</clipPath>
</defs>
</svg>
